<?xml version="1.0" encoding="utf-8"?>
<!-- Generator: Adobe Illustrator 26.0.1, SVG Export Plug-In . SVG Version: 6.00 Build 0)  -->
<svg version="1.1" id="图层_1" xmlns="http://www.w3.org/2000/svg" xmlns:xlink="http://www.w3.org/1999/xlink" x="0px" y="0px"
	 viewBox="0 0 200 200" style="enable-background:new 0 0 200 200;" xml:space="preserve">
<style type="text/css">
	.st0{fill:#5584FF;}
</style>
<path class="st0" d="M177.1,57.7c-11-23.7-36.3-37.8-67.5-37.8c-56.9,0-67.2,55.3-68.8,68.4c-3.7,3.1-11.2,10.3-15.6,20.3
	c-1.7,3.9-1.6,8,0.5,11.3c4,6.6,14.5,9,21.7,10v37.6c0,3.3,2.7,6,6,6h36.1c3.3,0,6-2.7,6-6s-2.7-6-6-6H59.4v-37c0-3.2-2.5-5.8-5.7-6
	c-7.8-0.4-16.6-2.8-17.6-5c4.6-10.3,13.8-17.1,13.9-17.2c1.4-1.1,2.3-2.7,2.5-4.5c0.1-2.4,4.3-59.9,57.1-59.9
	c26.4,0,47.6,11.5,56.6,30.9c10,21.4,3.2,48.6-18.6,74.7c-0.9,1.1-1.4,2.4-1.4,3.8v25.2c-0.1,3.3,2.4,6.1,5.8,6.2
	c3.3,0.1,6.1-2.4,6.2-5.8c0-0.2,0-0.3,0-0.5v-23C182,114.1,188.9,83,177.1,57.7"/>
<path class="st0" d="M133.2,61.5c-3.3,0-6,2.7-6,6l0,0v53.1c0,3.3,2.7,6,6,6s6-2.7,6-6V67.5C139.2,64.2,136.5,61.5,133.2,61.5
	L133.2,61.5z M92.6,102.4L97.4,89l4.6,13.4H92.6z M103.2,68.9c-0.8-2.4-3.1-4-5.6-4.1h0c-2.5,0-4.8,1.6-5.6,4l-18.5,51.5
	c-1.1,3.1,0.6,6.5,3.8,7.6c3,1,6.4-0.5,7.5-3.5l3.6-10h17.8l3.4,9.9c1.1,3.1,4.6,4.7,7.7,3.6c3-1.1,4.6-4.4,3.7-7.4L103.2,68.9
	L103.2,68.9z"/>
</svg>
