<?xml version="1.0" standalone="no"?><!DOCTYPE svg PUBLIC "-//W3C//DTD SVG 1.1//EN" "http://www.w3.org/Graphics/SVG/1.1/DTD/svg11.dtd"><svg t="1742372532739" class="icon" viewBox="0 0 1551 1024" version="1.1" xmlns="http://www.w3.org/2000/svg" p-id="5965" xmlns:xlink="http://www.w3.org/1999/xlink" width="302.9296875" height="200"><path d="M0 0h1551.515152v1024H0z" fill="#CE1126" p-id="5966"></path><path d="M259.584 119.963152l33.792 97.05503 106.992485 0.775757-82.672485 65.450667 32.519758 104.502303-90.631758-62.270061-90.631758 62.270061 30.40194-105.898667-80.546909-64.069818 106.992485-0.775757z" fill="#FCD116" p-id="5967"></path><path d="M553.022061 50.168242l10.720969 30.789819 33.947152 0.240484-26.228364 20.774788 10.317576 33.155879-28.757333-19.758545-28.757334 19.758545 9.650425-33.59806-25.6-20.324849 33.947151-0.240485zM681.665939 176.197818l10.72097 30.789818 33.947152 0.240485-26.228364 20.774788 10.317576 33.155879-28.757334-19.758546-28.757333 19.758546 9.650424-33.598061-25.6-20.324848 33.947152-0.240485zM677.228606 359.113697l10.72097 30.789818 33.947151 0.240485-26.228363 20.774788 10.317575 33.155879-28.757333-19.758546-28.757333 19.758546 9.650424-33.598061-25.6-20.324848 33.947151-0.240485zM553.022061 484.033939l10.720969 30.789819 33.947152 0.240484-26.228364 20.774788 10.317576 33.155879-28.757333-19.758545-28.757334 19.758545 9.650425-33.598061-25.6-20.324848 33.947151-0.240485z" fill="#FCD116" p-id="5968"></path></svg>