<?xml version="1.0" standalone="no"?><!DOCTYPE svg PUBLIC "-//W3C//DTD SVG 1.1//EN" "http://www.w3.org/Graphics/SVG/1.1/DTD/svg11.dtd"><svg t="1742372603178" class="icon" viewBox="0 0 1489 1024" version="1.1" xmlns="http://www.w3.org/2000/svg" p-id="12175" xmlns:xlink="http://www.w3.org/1999/xlink" width="290.8203125" height="200"><path d="M0 0h1273.928202v879.536182H0z" fill="#00458F" p-id="12176"></path><path d="M1279.325356 307.677748H768.514729V0h-255.905051v307.677748H1.799051v264.180686h510.810627V879.536182h255.905051v-307.677748H1279.325356z" fill="#FFFFFF" p-id="12177"></path><path d="M1279.325356 778.4295L148.201847 0H1.799051v102.186113L1131.883109 879.536182H1279.325356z" fill="#FFFFFF" p-id="12178"></path><path d="M1.799051 778.4295L1132.92256 0H1279.325356v102.186113L149.241299 879.536182H1.799051z" fill="#FFFFFF" p-id="12179"></path><path d="M1279.325356 363.128506H714.823043V0h-148.521678v363.128506H1.799051v153.27917h564.502314V879.536182h148.521678v-363.128506H1279.325356z" fill="#CC3440" p-id="12180"></path><path d="M1279.325356 877.377321v-69.563317l-343.338943-235.95557h-101.146661L1279.325356 877.377321zM1279.325356 0h-101.106682L768.514729 281.571515v26.106233h63.166689L1279.325356 0zM446.244676 571.858434L1.799051 877.377321V879.536182h96.908896l413.901731-283.770355v-23.907393h-66.365002zM1.799051 0v69.563316l345.417846 238.114432h102.186113L1.799051 0z" fill="#CC3440" p-id="12181"></path></svg>