<?xml version="1.0" standalone="no"?><!DOCTYPE svg PUBLIC "-//W3C//DTD SVG 1.1//EN" "http://www.w3.org/Graphics/SVG/1.1/DTD/svg11.dtd"><svg t="1742368572109" class="icon" viewBox="0 0 1024 1024" version="1.1" xmlns="http://www.w3.org/2000/svg" p-id="1468" xmlns:xlink="http://www.w3.org/1999/xlink" width="200" height="200"><path d="M798.464 389.4784l-10.5472 24.1152a21.6064 21.6064 0 0 1-39.8336 0l-10.5472-24.1152a186.1632 186.1632 0 0 0-94.6688-96.0512l-32.4096-14.4384a22.6304 22.6304 0 0 1 0-41.0624l30.6176-13.6192a186.2656 186.2656 0 0 0 96.0512-99.2768l10.752-26.112a21.6064 21.6064 0 0 1 40.192 0l10.8032 26.112a186.2656 186.2656 0 0 0 96.0512 99.2768l30.6176 13.6192a22.6304 22.6304 0 0 1 0 41.0624l-32.4096 14.4384a186.1632 186.1632 0 0 0-94.72 96.0512zM170.5984 768v-85.3504H85.3504V768A170.6496 170.6496 0 0 0 256 938.6496h128v-85.2992H256l-6.3488-0.256A85.3504 85.3504 0 0 1 170.6496 768z m742.4 170.6496l-187.6992-469.2992H640l-187.6992 469.2992h91.904l51.2-128h174.4896l51.2 128h91.9552z m-283.5968-213.2992l53.248-132.9152 53.0944 132.9152h-106.3424z m-330.752-512V128H213.2992v85.3504H42.6496V512h170.7008v128h85.2992V512h170.7008V213.3504H298.6496zM128 298.6496h85.3504v128H128v-128z m170.6496 0H384v128H298.6496v-128z" p-id="1469" fill="#333333"></path></svg>