<?xml version="1.0" standalone="no"?><!DOCTYPE svg PUBLIC "-//W3C//DTD SVG 1.1//EN" "http://www.w3.org/Graphics/SVG/1.1/DTD/svg11.dtd"><svg t="1742391623778" class="icon" viewBox="0 0 1024 1024" version="1.1" xmlns="http://www.w3.org/2000/svg" p-id="8220" xmlns:xlink="http://www.w3.org/1999/xlink" width="200" height="200"><path d="M492.693333 397.226667a21.333333 21.333333 0 0 1 38.613334 0l169.6 360.533333a21.333333 21.333333 0 0 1-19.285334 30.421333H342.378667a21.333333 21.333333 0 0 1-19.306667-30.421333l169.621333-360.533333zM597.717333 341.290667l156.010667-121.344 34.666667 34.666666-121.344 156.032-69.333334-69.333333z" fill="#ACBEFF" p-id="8221"></path><path d="M788.373333 219.946667m-34.665203 34.665203a49.024 49.024 0 1 0 69.330406-69.330406 49.024 49.024 0 1 0-69.330406 69.330406Z" fill="#ACBEFF" p-id="8222"></path><path d="M433.792 568.896c121.749333 121.749333 319.146667 121.749333 440.896 0L433.792 128c-121.749333 121.749333-121.749333 319.146667 0 440.896z" fill="#1F64FF" p-id="8223"></path><path d="M533.333333 537.514667a32 32 0 0 1 32 32v76.8a32 32 0 1 1-64 0v-76.8a32 32 0 0 1 32-32z" fill="#FFFFFF" p-id="8224"></path><path d="M170.666667 810.581333c0 19.797333 35.968 38.805333 99.968 52.8 64 13.994667 150.826667 21.866667 241.365333 21.866667s177.344-7.872 241.365333-21.866667c64-13.994667 99.968-33.002667 99.968-52.8 0-19.797333-35.968-38.784-99.968-52.8-64-13.994667-150.826667-21.866667-241.365333-21.866666s-177.344 7.872-241.365333 21.866666C206.634667 771.797333 170.666667 790.784 170.666667 810.581333z" fill="#ACBEFF" fill-opacity=".4" p-id="8225"></path></svg>