<?xml version="1.0" standalone="no"?><!DOCTYPE svg PUBLIC "-//W3C//DTD SVG 1.1//EN" "http://www.w3.org/Graphics/SVG/1.1/DTD/svg11.dtd"><svg t="1742090350718" class="icon" viewBox="0 0 1024 1024" version="1.1" xmlns="http://www.w3.org/2000/svg" p-id="53928" xmlns:xlink="http://www.w3.org/1999/xlink" width="200" height="200"><path d="M578.39312 955.696a34.16 34.16 0 0 1 0 68.304h-136a34.16 34.16 0 0 1 0-68.304z m67.936-136.624a34.16 34.16 0 0 1 0 68.304H374.47312a34.16 34.16 0 0 1 0-68.304zM510.32912 0a415.024 415.024 0 0 1 411.2 409.6 409.936 409.936 0 0 1-183.568 341.296H286.04112A401.952 401.952 0 0 1 102.47312 409.6 409.936 409.936 0 0 1 510.32912 0z m274.72 272.976h-34.16l-139.84 167.296-133.136-133.072H409.67312L239.14512 512v34.16h68.304l136.368-170.64 136.624 136.496h68.304l136.496-170.64v-68.304z" fill="#1c1f89" p-id="53929"></path></svg>