<?xml version="1.0" encoding="utf-8"?>
<!-- Generator: Adobe Illustrator 26.0.1, SVG Export Plug-In . SVG Version: 6.00 Build 0)  -->
<svg version="1.1" id="圖層_1" xmlns="http://www.w3.org/2000/svg" xmlns:xlink="http://www.w3.org/1999/xlink" x="0px" y="0px"
	 viewBox="0 0 200 200" style="enable-background:new 0 0 200 200;" xml:space="preserve">
<style type="text/css">
	.st0{fill:#8C8C8C;}
</style>
<path class="st0" d="M100.5,174.5c-1,0-3.1,0-4.2-1l-65.6-66.7C12,88.2,12,58,30.6,39.3l0.1-0.1C47.4,22.5,73.4,20.4,92.2,34
	c2.1,2.1,3.1,5.2,1,7.3c-1,2.1-4.2,2.1-6.2,1C72.4,31.9,51.6,34,39.1,46.5c-15.7,14.5-15.7,38.5,0,53l61.5,61.5L162,99.5
	c14.6-14.6,14.6-38.5,0-53.1s-38.5-14.6-53.1,0L77.6,77.7c-1.9,2-5.1,2.1-7.1,0.2c-0.1-0.1-0.1-0.1-0.2-0.2c-2-1.9-2.1-5.1-0.2-7.1
	c0.1-0.1,0.1-0.1,0.2-0.2l31.3-31.2c18.6-18.7,48.9-18.8,67.6-0.1l0.1,0.1C188,57.7,188,88,169.4,106.7l-0.1,0.1l-64.6,65.6
	C103.6,173.5,101.6,174.5,100.5,174.5L100.5,174.5z"/>
</svg>
