<?xml version="1.0" encoding="utf-8"?>
<!-- Generator: Adobe Illustrator 26.0.1, SVG Export Plug-In . SVG Version: 6.00 Build 0)  -->
<svg version="1.1" id="圖層_1" xmlns="http://www.w3.org/2000/svg" xmlns:xlink="http://www.w3.org/1999/xlink" x="0px" y="0px"
	 viewBox="0 0 200 200" style="enable-background:new 0 0 200 200;" xml:space="preserve">
<style type="text/css">
	.st0{fill:#4A5CD4;}
</style>
<path class="st0" d="M113,186.7c3.7,0.1,6.6,3.1,6.5,6.8c-0.1,3.6-3,6.4-6.5,6.5H86.4c-3.7-0.1-6.6-3.1-6.5-6.8
	c0.1-3.6,3-6.4,6.5-6.5H113z M126.2,160c3.7,0.1,6.6,3.1,6.5,6.8c-0.1,3.6-3,6.4-6.5,6.5H73.1c-3.7-0.1-6.6-3.1-6.5-6.8
	c0.1-3.6,3-6.4,6.5-6.5H126.2z M99.7,0c44.1,0.4,79.7,35.9,80.3,80c0,26.8-13.5,51.8-35.9,66.7H55.9C33.3,132,19.8,106.9,20,80
	C20,36,55.6,0.2,99.7,0z M153.3,53.3h-6.7L119.3,86l-26-26H80l-33.3,40v6.7H60l26.6-33.3l26.7,26.7h13.3l26.7-33.3L153.3,53.3
	L153.3,53.3z"/>
</svg>
