<?xml version="1.0" standalone="no"?><!DOCTYPE svg PUBLIC "-//W3C//DTD SVG 1.1//EN" "http://www.w3.org/Graphics/SVG/1.1/DTD/svg11.dtd"><svg class="icon" width="200px" height="200.00px" viewBox="0 0 1024 1024" version="1.1" xmlns="http://www.w3.org/2000/svg"><path fill="#1d2089" d="M514.688 893.653333c-5.376 0-16.042667 0-21.333333-5.333333l-336.042667-341.333333a244.650667 244.650667 0 0 1 0-346.666667c85.333333-85.333333 218.709333-96 314.709333-26.666667 10.666667 10.666667 15.957333 26.666667 5.290667 37.333334-5.290667 10.666667-21.333333 10.666667-32 5.333333-74.666667-53.333333-181.333333-42.666667-245.333333 21.333333-80 74.666667-80 197.333333 0 272l314.666666 314.666667 314.709334-314.666667c74.666667-74.666667 74.666667-197.333333 0-272s-197.333333-74.666667-272 0l-160 160a25.770667 25.770667 0 0 1-37.376 0 25.770667 25.770667 0 0 1 0-37.333333l160-160a244.650667 244.650667 0 0 1 346.709333 0 244.650667 244.650667 0 0 1 0 346.666667l-330.666667 336c-5.376 5.333333-16.042667 10.666667-21.333333 10.666666z"  /></svg>