<?xml version="1.0" encoding="utf-8"?>
<!-- Generator: Adobe Illustrator 26.0.1, SVG Export Plug-In . SVG Version: 6.00 Build 0)  -->
<svg version="1.1" id="圖層_1" xmlns="http://www.w3.org/2000/svg" xmlns:xlink="http://www.w3.org/1999/xlink" x="0px" y="0px"
	 viewBox="0 0 200 200" style="enable-background:new 0 0 200 200;" xml:space="preserve">
<style type="text/css">
	.st0{fill:#4A5CD4;}
</style>
<path class="st0" d="M55.5,60.1L87.4,36c8.8-6.5,20.3-8.1,30.4-4.3L168.6,51c3.4,1.3,6.9,1.9,10.3,1.9h8.4c2.4,0,4.5,1.9,4.5,4.3
	V119c0,2.4-2.1,4.4-4.5,4.4h-11c-1.5,0-3.2,0.6-4.3,1.5l-2.4,2c-0.6,0.6-1.5,0.4-2.1-0.2l-59.2-71.5c-1.5-1.9-4.1-2.2-6.2-1.1
	l-27.1,15c-5.4,3-11.9,3.3-17.7,0.9c-3-1.3-4.5-4.8-3.2-8C54.2,61.4,54.7,60.7,55.5,60.1L55.5,60.1z M13.7,123.2h9.5l6.7-8.1
	c6-7.2,16.8-8.1,24.1-2.2c2.6,2.2,4.7,5.2,5.6,8.5c5.8,1.5,10.3,5.9,11.9,11.7c4.1,1.3,7.8,3.9,9.9,7.8c3.6,0.6,6.9,2.2,9.5,4.8
	c5.4,5.7,6.5,14.3,2.4,21.1l-0.9,1.7v0.2c4.5,3,10.5,2,13.6-2.4c1.5-2.2,2.1-4.8,1.5-7.4v-0.2h0.2l0.8,0.7c3.4,3.3,8.8,3.9,12.7,1.3
	c3.2-2.2,4.7-6.1,3.9-9.8v-0.2h0.2l0.8,0.7c3.3,3.3,8.6,3.9,12.7,1.3c3.2-2.2,4.9-6.1,4.1-9.8v-0.2h0.2l0.8,0.7
	c3.2,3.1,8.2,3.7,11.9,1.5c4.7-2.8,6.2-8.7,3.4-13.3c-0.4-0.6-0.8-1.1-1.1-1.5l-6-7.2l-48.3-58.3c-0.6-0.6-1.3-0.7-2.1-0.4L78.4,77
	C71,81,62.2,81.8,54.2,78.8c-4.5-1.5-7.8-5-9.5-9.3c-1.3-4.4-0.8-9.3,1.7-13.1c0.6-1.1,0.2-2.4-0.9-3c-0.4-0.2-0.8-0.2-1.1-0.2H12.7
	c-2.4,0-4.5,1.9-4.5,4.3v61.6C9.2,121.4,11.2,123.2,13.7,123.2L13.7,123.2z M47.3,118.8c-3.7-2-8.2-1.1-10.8,2.2l-6.5,8
	c-2.8,3.5-2.4,8.7,1.1,11.5h0.2l0.9,0.7c2.6,2,6.4,2.2,9.2,0.7c0.2-0.2,0.4,0,0.6,0.2v0.4c-0.6,3,0.6,6.1,3,8l0.8,0.6
	c2.6,2,6,2.2,9,0.9c0.2-0.2,0.6,0,0.6,0.2v0.2c-0.4,2.8,0.9,5.6,3.2,7.4l0.6,0.4c2.6,2,6,2.4,9,0.7c0.2-0.2,0.6,0,0.6,0.2v0.2
	c0.4,2,1.5,3.9,3.2,5.2l0.4,0.2c3.7,2.8,9,2.2,11.8-1.5c0.2-0.4,0.6-0.7,0.8-0.9l1.1-2c2.1-3.5,1.5-7.8-1.5-10.5
	c-2.4-2.2-6-2.8-9.2-1.5c-0.2,0-0.2,0-0.4-0.2v-0.2c0.2-4.4-3.4-8.3-7.8-8.7c-1.1,0-2.2,0.2-3.4,0.6c-1.3,0.2-0.9-0.9-0.9-0.9
	c1.7-4.3-0.2-8.9-4.5-10.7c-2.2-0.9-5-0.7-7.1,0.4c-0.9,0.2-0.8-0.7-0.8-0.7C52.5,126,51.2,121,47.3,118.8L47.3,118.8z"/>
</svg>
