<?xml version="1.0" standalone="no"?><!DOCTYPE svg PUBLIC "-//W3C//DTD SVG 1.1//EN" "http://www.w3.org/Graphics/SVG/1.1/DTD/svg11.dtd"><svg t="1742394022577" class="icon" viewBox="0 0 1024 1024" version="1.1" xmlns="http://www.w3.org/2000/svg" p-id="9654" xmlns:xlink="http://www.w3.org/1999/xlink" width="200" height="200"><path d="M210.5 724h445.4v74.2H210.5V724z" fill="#00E7DD" p-id="9655"></path><path d="M796.9 208.3H485.2c-16.4 0-29.7 13.3-29.7 29.7v89.1h29.7V238H797v549.3H693V817h103.9c16.4 0 29.7-13.3 29.7-29.7V238c0-16.4-13.3-29.7-29.7-29.7z m-118.7 59.4H604c-8.2 0-14.8 6.6-14.8 14.8s6.6 14.8 14.8 14.8h74.2c8.2 0 14.8-6.6 14.8-14.8s-6.6-14.8-14.8-14.8z m-44.6 89.1H232.8c-16.4 0-29.7 13.3-29.7 29.7v400.9c0 16.4 13.3 29.7 29.7 29.7h400.9c16.4 0 29.7-13.3 29.7-29.7V386.5c-0.1-16.4-13.4-29.7-29.8-29.7z m0 415.7c0 8.2-6.6 14.8-14.8 14.8H247.6c-8.2 0-14.8-6.6-14.8-14.8V401.3c0-8.2 6.6-14.8 14.8-14.8h371.2c8.2 0 14.8 6.6 14.8 14.8v371.2zM361.9 586.6c-1.8 1.8-3.1 3.9-4.7 5.8l21 21c1.6-1.9 2.9-4 4.7-5.8 31.9-31.9 83.6-31.9 115.5 0 1.8 1.8 3.1 3.9 4.7 5.8l21-21c-1.6-1.9-2.9-4-4.7-5.8-43.5-43.5-114-43.5-157.5 0z m42 42c-1.8 1.8-3.2 3.8-4.7 5.8l41.5 34.3 41.5-34.3c-1.5-2-2.9-4-4.7-5.8-20.4-20.3-53.3-20.3-73.6 0z m-84-84c-1.8 1.8-3.3 3.7-5 5.5l21 21c1.7-1.8 3.2-3.7 5-5.5 55.1-55.1 144.4-55.1 199.5 0 1.8 1.8 3.3 3.7 5 5.5l21-21c-1.7-1.8-3.2-3.7-5-5.5-66.7-66.7-174.8-66.7-241.5 0z" fill="#008CFF" p-id="9656"></path></svg>