<?xml version="1.0" encoding="utf-8"?>
<!-- Generator: Adobe Illustrator 26.0.1, SVG Export Plug-In . SVG Version: 6.00 Build 0)  -->
<svg version="1.1" id="图层_1" xmlns="http://www.w3.org/2000/svg" xmlns:xlink="http://www.w3.org/1999/xlink" x="0px" y="0px"
	 viewBox="0 0 32 32" style="enable-background:new 0 0 32 32;" xml:space="preserve">
<style type="text/css">
	.st0{display:none;fill:#1D2089;}
	.st1{fill:#1D2089;}
	.st2{display:none;}
	.st3{display:inline;fill:#1D2089;}
</style>
<g>
	<polyline class="st0" points="86.7,32 90.7,32 90.7,22.9 86.7,22.9 	"/>
	<path class="st1" d="M30.5,4.4h-8.4c0,0-8.1,0-9.6,9.1h15.5v3.1H12.6c0,0,0,10.6,10.1,10.8c0,0,5.5,0.1,6.6-0.4v3.8
		c0,0-19.8,2.7-25.8-7.3c0,0-5.1-7.5,0.7-16.8c0,0,3.3-6.2,14.7-5.8h12"/>
</g>
<g class="st2">
	<path class="st3" d="M689.4,109.8h-96c-14.3,0.1-25-3.1-32.9-7.8c-14.5-8.5-23.3-25.9-23.3-44.4v-90.3H223.3l-1.3,24.8h226.2v191
		h42V-7.4h28.1v88.5c4.8,104.5,90,102.1,90,102.1h81.1v0h31.6v-73.4H689.4z"/>
	<path class="st3" d="M222.3-7.9h-59.8c0,0-58-0.2-68.6,64.9h110.8v22.2H93.9c0,0-0.1,75.7,71.9,77c0,0,39,0.5,47-2.9v27.4
		c0,0-141.8,19.6-184.6-52c0,0-36.2-53.4,4.9-119.7c0,0,23.5-44.6,105.1-41.6h85.5"/>
	<path class="st3" d="M381.9,156.3c-72-1.2-72-77-72-77h111V57.1h-111c9-54.8,53.1-65.1,66.3-66.4h-111C254.6-0.5,249,9,249,9
		c-41.1,66.3-4.9,119.7-4.9,119.7c42.9,71.6,184.9,52,184.9,52v-27.4C421,156.8,381.9,156.3,381.9,156.3z"/>
</g>
</svg>
