<?xml version="1.0" encoding="utf-8"?>
<!-- Generator: Adobe Illustrator 26.0.1, SVG Export Plug-In . SVG Version: 6.00 Build 0)  -->
<svg version="1.1" id="图层_1" xmlns="http://www.w3.org/2000/svg" xmlns:xlink="http://www.w3.org/1999/xlink" x="0px" y="0px"
	 viewBox="0 0 200 200" style="enable-background:new 0 0 200 200;" xml:space="preserve">
<style type="text/css">
	.st0{fill:#A6CEFF;}
	.st1{fill:#2B7EC1;}
</style>
<path class="st0" d="M90.2,144h26.3v17.8H90.2V144z"/>
<path class="st1" d="M117.8,163.1H88.9v-20.4h28.9V163.1z M91.5,160.5h23.7v-15.2H91.5L91.5,160.5z"/>
<path class="st0" d="M97,84.4h12.7v6.9H97V84.4z"/>
<path class="st1" d="M111,92.6H95.7v-9.5H111V92.6z M98.3,90h10.1v-4.3H98.3V90z"/>
<path class="st0" d="M118.7,45.8l3.6-5.3c0.4,0.2,1.1,0.2,1.6,0.2c1.3,0,2.7-0.4,3.6-1.3c3.1-3.3,0-8-3.8-8c-2.4,0-4.7,2-4.7,4.4
	c0,1,0.4,2,1.1,2.7l-3.6,5.8c-4-1.8-8.2-2.4-12.9-2.4c-4.7,0-9.1,1.1-13.1,2.9l-4-5.8c0.7-0.7,1.1-1.7,1.1-2.7c0-2.7-2-4.7-4.9-4.4
	c-2.4,0-4.4,2-4.7,4.2c-0.2,2.4,1.8,4.7,4.7,4.7c0.4,0,1.1,0,1.6-0.2l3.8,5.5c-5.6,3.6-9.6,9.1-9.6,17.3v16c0,2.9,2.4,5.3,5.3,5.3
	h39.5c2.9,0,5.3-2.4,5.3-5.3v-16C128.5,54.9,124.5,49.2,118.7,45.8L118.7,45.8z"/>
<path class="st1" d="M123.4,86H83.8c-3.6,0-6.6-3-6.6-6.6v-16c0-7.4,3.1-13.4,9-17.7L83.7,42c-0.3,0-0.7,0-1,0
	c-1.8,0-3.4-0.7-4.5-1.9c-1-1.1-1.5-2.6-1.4-4.2c0.3-3,2.9-5.4,5.9-5.4c1.7-0.1,3.3,0.4,4.4,1.5c1.2,1.1,1.8,2.6,1.8,4.3
	c0,1-0.3,1.9-0.8,2.7l2.9,4.1c4.2-1.7,8.4-2.6,12.6-2.6c4.8,0,8.7,0.7,12.4,2.1l2.5-4c-0.5-0.8-0.8-1.8-0.8-2.8c0-3.1,2.7-5.7,6-5.7
	c2.5,0,4.8,1.6,5.9,3.9c0.9,2.2,0.5,4.5-1.1,6.3l0,0c-1.1,1.1-2.7,1.7-4.5,1.7c-0.3,0-0.7,0-1,0l-2.3,3.4c2.6,1.7,4.8,3.9,6.4,6.6
	c1.9,3.2,3,7.1,3.1,11.3v16C130,83,127,86,123.4,86L123.4,86z M84.7,38.8l5.2,7.6l-1.1,0.7c-5.9,3.8-9,9.3-9,16.2v16
	c0,2.2,1.8,4,4,4h39.5c2.2,0,4-1.8,4-4v-16c-0.2-7.3-3.4-13-9.3-16.4l-1.2-0.7l5-7.4l1,0.5c0.2,0.1,0.8,0.1,1,0.1c1,0,2-0.3,2.6-0.9
	c1.3-1.4,0.9-2.7,0.6-3.4c-0.6-1.4-2-2.4-3.5-2.4c-1.8,0-3.4,1.5-3.4,3.1c0,0.7,0.3,1.3,0.7,1.8l0.7,0.7l-4.7,7.6l-1-0.5
	c-3.6-1.6-7.5-2.3-12.4-2.3c-4.2,0-8.4,0.9-12.6,2.8l-1,0.4L84.7,38.8l0.9-0.8c0.4-0.5,0.7-1.1,0.7-1.7c0-0.9-0.3-1.7-1-2.4
	c-0.6-0.6-1.5-0.9-2.5-0.8h-0.1c-1.8,0-3.2,1.6-3.4,3c-0.1,0.8,0.2,1.6,0.7,2.1c0.7,0.7,1.6,1.1,2.6,1.1c0.2,0,0.8,0,1-0.1
	L84.7,38.8z"/>
<path class="st0" d="M117.3,72H90c-3.3,0-6.4-2.7-6.7-6c-0.2-3.6,2.7-6.4,6.2-6.4h27.3c3.3,0,6.4,2.7,6.7,6
	C123.5,69.2,120.8,72,117.3,72z"/>
<path class="st1" d="M117.3,73.4H90c-2,0-3.9-0.8-5.4-2.1c-1.5-1.4-2.5-3.2-2.6-5.1c-0.1-2,0.6-4,2-5.4c1.4-1.5,3.5-2.4,5.6-2.4
	h27.3c2,0,3.9,0.8,5.4,2.1c1.5,1.4,2.5,3.2,2.6,5.1v0.1C124.8,69.9,121.5,73.4,117.3,73.4z M89.5,60.9c-1.4,0-2.7,0.6-3.7,1.6
	c-0.9,0.9-1.3,2.2-1.3,3.5c0.2,2.6,2.6,4.8,5.4,4.8h27.3c2.7,0,4.9-2.2,4.9-5.1c-0.2-2.6-2.6-4.7-5.4-4.7L89.5,60.9z"/>
<path class="st0" d="M92,63.2c1.4,0,2.6,1.2,2.6,2.7s-1.2,2.6-2.6,2.6c-1.4,0-2.7-1.2-2.7-2.6C89.4,64.4,90.5,63.2,92,63.2
	C92,63.2,92,63.2,92,63.2z"/>
<path class="st1" d="M92,69.8c-2.1,0-4-1.8-4-4c0-2.2,1.7-3.9,3.9-4c0,0,0.1,0,0.1,0c2.1,0,4,1.8,4,4C96,67.9,94.1,69.8,92,69.8z
	 M92,64.5c-0.7,0-1.3,0.6-1.3,1.3c0,0,0,0,0,0.1c0,0.7,0.6,1.3,1.3,1.3s1.3-0.6,1.3-1.3C93.4,65.1,92.8,64.5,92,64.5z"/>
<path class="st0" d="M114.7,63.2c1.4,0,2.6,1.2,2.7,2.6c0,1.4-1.2,2.6-2.7,2.6s-2.7-1.2-2.7-2.6C112.1,64.4,113.2,63.2,114.7,63.2
	C114.7,63.2,114.7,63.2,114.7,63.2L114.7,63.2z"/>
<path class="st1" d="M114.7,69.8c-2.1,0-4-1.8-4-4c0-2.2,1.7-3.9,3.9-4c0,0,0.1,0,0.1,0c2.1,0,4,1.8,4,4
	C118.7,67.9,116.8,69.8,114.7,69.8z M114.7,64.5c-0.7,0-1.3,0.6-1.3,1.3c0,0,0,0,0,0.1c0,0.7,0.6,1.3,1.3,1.3c0.7,0,1.3-0.6,1.3-1.3
	C116.1,65.1,115.5,64.5,114.7,64.5z"/>
<path class="st0" d="M131.4,146.5H74.1c-3.4,0-6.1-3.2-6.1-7.1v-42c0-3.9,2.8-7.1,6.1-7.1h58.5c3.4,0,6.1,3.2,6.1,7.1V138
	C138.8,142.6,135.5,146.5,131.4,146.5L131.4,146.5z"/>
<path class="st1" d="M131.4,147.8H74.1c-4.1,0-7.5-3.8-7.5-8.4v-42c0-4.6,3.3-8.4,7.5-8.4h58.5c4.1,0,7.5,3.8,7.5,8.4V138
	C140.1,143.4,136.2,147.8,131.4,147.8L131.4,147.8z M74.1,91.7c-2.7,0-4.8,2.6-4.8,5.8v42c0,3.2,2.2,5.8,4.8,5.8h57.3
	c3.3,0,6.1-3.3,6.1-7.1V97.5c0-3.2-2.2-5.8-4.8-5.8L74.1,91.7z"/>
<path class="st0" d="M111.1,133.4c0,2.2,1.8,3.9,3.9,3.9c2.2,0,3.9-1.8,3.9-3.9c0-2.2-1.8-3.9-3.9-3.9
	C112.9,129.4,111.1,131.2,111.1,133.4L111.1,133.4z"/>
<path class="st1" d="M115.1,138.6c-2.9,0-5.3-2.3-5.3-5.2c0-2.9,2.3-5.3,5.2-5.3c2.9,0,5.3,2.3,5.3,5.2c0,0,0,0,0,0
	C120.3,136.3,118,138.6,115.1,138.6z M115.1,130.7c-1.5,0-2.6,1.2-2.6,2.6s1.2,2.6,2.6,2.6c1.5,0,2.6-1.2,2.6-2.6c0,0,0,0,0,0
	C117.7,131.9,116.5,130.7,115.1,130.7L115.1,130.7z"/>
<path class="st0" d="M126,133.4c0,2.2,1.8,3.9,3.9,3.9c2.2,0,3.9-1.8,3.9-3.9s-1.8-3.9-3.9-3.9C127.8,129.4,126,131.2,126,133.4z"/>
<path class="st1" d="M130,138.6c-2.9,0-5.3-2.3-5.3-5.2c0-2.9,2.3-5.3,5.2-5.3c2.9,0,5.3,2.3,5.3,5.2c0,0,0,0,0,0
	C135.2,136.3,132.9,138.6,130,138.6z M130,130.7c-1.5,0-2.6,1.2-2.6,2.6s1.2,2.6,2.6,2.6c1.5,0,2.6-1.2,2.6-2.6c0,0,0,0,0,0
	C132.6,131.9,131.4,130.7,130,130.7L130,130.7z M90.9,103H75.6c-0.7,0-1.3-0.6-1.3-1.3s0.6-1.3,1.3-1.3h15.3c0.7,0,1.3,0.6,1.3,1.3
	S91.6,103,90.9,103z M86.5,107.9H75.6c-0.7,0-1.3-0.6-1.3-1.3c0-0.7,0.6-1.3,1.3-1.3h10.9c0.7,0,1.3,0.6,1.3,1.3
	C87.8,107.3,87.2,107.9,86.5,107.9z"/>
<path class="st0" d="M79.3,160.1h48.2c5,0,7.5,2.5,7.5,7.5v0.7c0,5-2.5,7.5-7.5,7.5H79.3c-5,0-7.5-2.5-7.5-7.5v-0.7
	C71.7,162.6,74.2,160.1,79.3,160.1z"/>
<path class="st1" d="M127.5,177.2H79.3c-4.9,0-8.8-4-8.8-8.8v-0.7c0-4.9,4-8.8,8.8-8.8h48.2c4.9,0,8.8,4,8.8,8.8v0.7
	C136.3,173.2,132.4,177.2,127.5,177.2z M79.3,161.4c-3.4,0-6.2,2.8-6.2,6.2v0.7c0,3.4,2.8,6.2,6.2,6.2h48.2c3.4,0,6.2-2.8,6.2-6.2
	v-0.7c0-3.4-2.8-6.2-6.2-6.2H79.3z"/>
<path class="st1" d="M79.3,168c0,1.7,1.3,3,3,3c1.7,0,3-1.3,3-3c0,0,0,0,0,0c0-1.7-1.3-3-3-3C80.6,165,79.3,166.3,79.3,168
	C79.3,168,79.3,168,79.3,168z"/>
<path class="st1" d="M93.4,168c0,1.7,1.3,3,3,3c1.7,0,3-1.3,3-3c0,0,0,0,0,0c0-1.7-1.3-3-3-3C94.7,165,93.4,166.3,93.4,168
	C93.4,168,93.4,168,93.4,168z"/>
<path class="st1" d="M107.4,168c0,1.7,1.3,3,3,3s3-1.3,3-3c0-1.7-1.3-3-3-3S107.4,166.3,107.4,168z"/>
<path class="st1" d="M121.5,168c0,1.7,1.3,3,3,3c1.7,0,3-1.3,3-3c0-1.7-1.3-3-3-3C122.8,165,121.5,166.3,121.5,168z"/>
<path class="st1" d="M56,141c3.6,0,6.6,2.8,6.6,6c0,0.9-0.7,1.6-1.6,1.6c-0.9,0-1.6-0.7-1.6-1.6c0-1.4-1.6-2.7-3.3-2.7
	s-3.3,1.3-3.3,2.7c0,0.9-0.7,1.6-1.6,1.6c-0.9,0-1.6-0.7-1.6-1.6C49.4,143.8,52.5,141,56,141z"/>
<path class="st0" d="M55.4,102.6h1.2c2.6,0,4,1.3,4,4V137c0,2.6-1.3,4-4,4h-1.2c-2.6,0-4-1.3-4-4v-30.4
	C51.4,103.9,52.7,102.6,55.4,102.6z"/>
<path class="st1" d="M56.6,142.3h-1.2c-2.9,0-5.3-2.4-5.3-5.3v-30.4c0-2.9,2.4-5.3,5.3-5.3h1.2c2.9,0,5.3,2.4,5.3,5.3V137
	C61.9,139.9,59.5,142.3,56.6,142.3z M55.4,103.9c-1.5,0-2.7,1.2-2.7,2.7V137c0,1.5,1.2,2.7,2.7,2.7h1.2c1.5,0,2.7-1.2,2.7-2.7v-30.4
	c0-1.5-1.2-2.7-2.7-2.7L55.4,103.9z"/>
<path class="st0" d="M54.8,110.2h4.7c1.3,0,2.3-1.1,2.3-2.4V97c0-1.3-1.1-2.3-2.3-2.4h-4.7c-2.6,0-4.7,2.1-4.7,4.7v6.1
	C50.1,108,52.2,110.2,54.8,110.2L54.8,110.2z"/>
<path class="st1" d="M59.5,111.5h-4.7c-3.3,0-6-2.7-6-6v-6.1c0-3.3,2.7-6,6-6h4.7c2,0,3.7,1.6,3.7,3.7v10.8
	C63.1,109.8,61.5,111.5,59.5,111.5z M54.8,95.9c-1.9,0-3.4,1.5-3.4,3.4v6.1c0,1.9,1.5,3.4,3.4,3.4h4.7c0.6,0,1-0.5,1-1V97
	c0-0.6-0.5-1-1-1L54.8,95.9z M150.8,141c3.5,0,6.6,2.8,6.6,6c0,0.9-0.7,1.6-1.6,1.6c-0.9,0-1.6-0.7-1.6-1.6c0-1.4-1.6-2.7-3.3-2.7
	c-1.7,0-3.3,1.3-3.3,2.7c0,0.9-0.7,1.6-1.6,1.6c-0.9,0-1.6-0.7-1.6-1.6C144.3,143.8,147.2,141,150.8,141L150.8,141z"/>
<path class="st0" d="M151.4,141h-1.2c-2.6,0-4-1.3-4-4v-30.4c0-2.6,1.3-4,4-4h1.2c2.6,0,4,1.3,4,4V137
	C155.4,139.7,154.1,141,151.4,141z"/>
<path class="st1" d="M151.4,142.3h-1.2c-2.9,0-5.3-2.4-5.3-5.3v-30.4c0-2.9,2.4-5.3,5.3-5.3h1.2c2.9,0,5.3,2.4,5.3,5.3V137
	C156.7,139.9,154.3,142.3,151.4,142.3L151.4,142.3z M150.2,103.9c-1.5,0-2.7,1.2-2.7,2.7V137c0,1.5,1.2,2.7,2.7,2.7h1.2
	c1.5,0,2.7-1.2,2.7-2.7v-30.4c0-1.5-1.2-2.7-2.7-2.7L150.2,103.9z"/>
<path class="st0" d="M152,110.2c2.6,0,4.7-2.1,4.7-4.7v-6.1c0-2.6-2.1-4.7-4.7-4.7h-4.7c-1.3,0-2.4,1.1-2.3,2.4v10.8
	c0,1.3,1.1,2.3,2.3,2.4L152,110.2z"/>
<path class="st1" d="M152,111.5h-4.7c-2,0-3.7-1.6-3.7-3.7V97c0-2,1.6-3.7,3.7-3.7h4.7c3.3,0,6,2.7,6,6v6.1
	C158,108.8,155.3,111.5,152,111.5L152,111.5z M147.3,95.9c-0.6,0-1,0.5-1,1v10.8c0,0.6,0.5,1,1,1h4.7c1.9,0,3.4-1.5,3.4-3.4v-6.1
	c0-1.9-1.5-3.4-3.4-3.4H147.3z"/>
</svg>
